<svg width="80" height="70" viewBox="0 0 80 70" fill="none" xmlns="http://www.w3.org/2000/svg">
<g clip-path="url(#clip0_45_1019)">
<path d="M38.2698 11.5374C39.2837 10.9814 39.6515 9.71491 39.0912 8.70859C38.5311 7.70226 37.2551 7.33718 36.2412 7.89316C35.2274 8.44914 34.8595 9.71565 35.4197 10.722C35.9798 11.7283 37.2559 12.0934 38.2698 11.5374Z" fill="#242424"/>
<path d="M9.13152 66.0821H4.03152L2.71573 68.9422H0.747314L6.68679 56.4049L12.3421 68.9422H10.3736L9.13152 66.0821ZM8.39731 64.3765L6.62626 60.3619L4.78416 64.3765H8.39731Z" fill="#242424"/>
<path d="M28.421 61.7097H33.5395V57.0918H35.3631V68.9369H33.5395V63.4153H28.421V68.9396H26.5947V57.0918H28.421V61.7097Z" fill="#242424"/>
<path d="M45.2421 66.0821H40.1447L38.8289 68.9422H36.8684L42.8079 56.4049L48.4631 68.9422H46.4947L45.2421 66.0821ZM44.5079 64.3765L42.7368 60.3619L40.8947 64.3765H44.5079Z" fill="#242424"/>
<path d="M52.7421 58.7974V68.9369H50.9158V58.7974H48.179V57.0918H55.479V58.7974H52.7421Z" fill="#242424"/>
<path d="M63.208 66.0821H58.1106L56.7948 68.9422H54.8264L60.7659 56.4049L66.4212 68.9422H64.4738L63.208 66.0821ZM62.4738 64.3765L60.7027 60.3619L58.8606 64.3765H62.4738Z" fill="#242424"/>
<path d="M79.2422 63.0235C79.2422 66.5052 76.6106 69.1694 73.0343 69.1694C69.458 69.1694 66.8264 66.5052 66.8264 63.0235C66.8264 59.5418 69.458 56.8776 73.0343 56.8776C76.6106 56.8776 79.2422 59.5522 79.2422 63.0235ZM77.4159 63.0235C77.4159 60.3959 75.5896 58.5493 73.0317 58.5493C70.4738 58.5493 68.6475 60.3959 68.6475 63.0235C68.6475 65.6511 70.4711 67.4978 73.0317 67.4978C75.5922 67.4978 77.4159 65.6537 77.4159 63.0235Z" fill="#242424"/>
<path d="M21.9079 60.9627L13.8579 69.4698V57.0918H15.6816V65.1026L23.7342 56.5955V68.9369H21.9079V60.9627Z" fill="#242424"/>
<path d="M19.5247 56.4049C20.2499 56.0072 20.5129 55.1014 20.1123 54.3817C19.7117 53.662 18.799 53.4009 18.074 53.7986C17.3488 54.1962 17.0858 55.1019 17.4864 55.8217C17.887 56.5414 18.7996 56.8025 19.5247 56.4049Z" fill="#242424"/>
<path d="M25.9106 39.3149L31.9843 30.0922H44.1685L38.0949 39.3149H25.9106Z" fill="#68EADD"/>
<path d="M25.9106 20.8668L31.9843 30.0922H44.1685L38.0949 20.8668H25.9106Z" fill="#87FFF8"/>
<path d="M36.8316 0.496264L30.7579 9.72164H18.5737L24.6474 0.496264H36.8316Z" fill="#FAE556"/>
<path d="M36.8316 18.9444L30.7579 9.72164H18.5737L24.6474 18.9444H36.8316Z" fill="#F2B708"/>
<path d="M61.6027 44.0869L50.6501 42.2743L45.7527 31.2022L56.7053 33.0123L61.6027 44.0869Z" fill="#A2C73B"/>
<path d="M44.5817 51.5022L50.6501 42.2743L45.7527 31.2022L39.6843 40.4276L44.5817 51.5022Z" fill="#748F2A"/>
</g>
<defs>
<clipPath id="clip0_45_1019">
<rect width="80" height="70" fill="white"/>
</clipPath>
</defs>
</svg>
