<svg width="16" height="11" viewBox="0 0 16 11" fill="none" xmlns="http://www.w3.org/2000/svg">
<path d="M8.71455 10.5C3.24797 10.5 0.129919 6.74625 0 0.5H2.73829C2.82823 5.08458 4.84697 7.02653 6.44597 7.42693V0.5H9.02436V4.45395C10.6034 4.28378 12.2623 2.48198 12.822 0.5H15.4004C15.1895 1.52791 14.7691 2.50118 14.1655 3.35893C13.562 4.21668 12.7882 4.94045 11.8926 5.48498C12.8923 5.98254 13.7753 6.68678 14.4833 7.55125C15.1913 8.41571 15.7082 9.42073 16 10.5H13.1618C12.8999 9.56258 12.3676 8.72343 11.6316 8.08773C10.8956 7.45203 9.9886 7.04805 9.02436 6.92643V10.5H8.71455Z" fill="#242424"/>
</svg>
